<mxfile host="app.diagrams.net" modified="2024-06-17T15:23:19.809Z" agent="Mozilla/5.0 (Macintosh; Intel Mac OS X 10_15_7) AppleWebKit/537.36 (KHTML, like Gecko) Chrome/126.0.0.0 Safari/537.36" etag="X1M84tn33_Z3lgiX1j9p" version="24.2.3" type="device">
  <diagram id="9D0xOafKc7UNwbASUKqm" name="Page-1">
    <mxGraphModel dx="1434" dy="761" grid="0" gridSize="10" guides="1" tooltips="1" connect="1" arrows="1" fold="1" page="1" pageScale="1" pageWidth="850" pageHeight="1100" background="none" math="0" shadow="1">
      <root>
        <mxCell id="0" />
        <mxCell id="48SKnOxND9hZLmwks5wA-141" value="Base Layer" parent="0" />
        <mxCell id="48SKnOxND9hZLmwks5wA-145" value="" style="rounded=1;whiteSpace=wrap;html=1;strokeWidth=2;fillWeight=4;hachureGap=8;hachureAngle=45;fillColor=#d5e8d4;sketch=1;fontFamily=Verdana;fontSize=13;gradientColor=#97d077;strokeColor=#82b366;" parent="48SKnOxND9hZLmwks5wA-141" vertex="1">
          <mxGeometry x="266" y="251" width="469" height="440" as="geometry" />
        </mxCell>
        <mxCell id="48SKnOxND9hZLmwks5wA-146" value="" style="rounded=1;whiteSpace=wrap;html=1;strokeWidth=2;fillWeight=4;hachureGap=8;hachureAngle=45;fillColor=#ffcd28;sketch=1;fontFamily=Verdana;fontSize=13;gradientColor=#ffa500;strokeColor=#d79b00;spacing=0;" parent="48SKnOxND9hZLmwks5wA-141" vertex="1">
          <mxGeometry x="111" y="251" width="150" height="437" as="geometry" />
        </mxCell>
        <mxCell id="48SKnOxND9hZLmwks5wA-150" value="" style="rounded=1;whiteSpace=wrap;html=1;strokeWidth=2;fillWeight=4;hachureGap=8;hachureAngle=45;sketch=1;fontFamily=Verdana;fontSize=13;fillColor=default;strokeColor=#36393d;gradientColor=default;" parent="48SKnOxND9hZLmwks5wA-141" vertex="1">
          <mxGeometry x="741" y="251" width="170" height="443" as="geometry" />
        </mxCell>
        <mxCell id="48SKnOxND9hZLmwks5wA-153" value="" style="rounded=1;whiteSpace=wrap;html=1;strokeWidth=2;fillWeight=4;hachureGap=8;hachureAngle=45;fillColor=#fff2cc;sketch=1;fontFamily=Verdana;fontSize=13;gradientColor=#ffd966;strokeColor=#d6b656;" parent="48SKnOxND9hZLmwks5wA-141" vertex="1">
          <mxGeometry x="918" y="251" width="160" height="444" as="geometry" />
        </mxCell>
        <mxCell id="SLgtaiLM20Nm-NQ-cX85-2" style="edgeStyle=orthogonalEdgeStyle;rounded=0;orthogonalLoop=1;jettySize=auto;html=1;exitX=0.5;exitY=1;exitDx=0;exitDy=0;entryX=0.5;entryY=0;entryDx=0;entryDy=0;" parent="48SKnOxND9hZLmwks5wA-141" source="48SKnOxND9hZLmwks5wA-3" edge="1">
          <mxGeometry relative="1" as="geometry">
            <mxPoint x="339" y="408" as="targetPoint" />
          </mxGeometry>
        </mxCell>
        <mxCell id="SLgtaiLM20Nm-NQ-cX85-4" style="edgeStyle=orthogonalEdgeStyle;rounded=0;orthogonalLoop=1;jettySize=auto;html=1;exitX=0.5;exitY=1;exitDx=0;exitDy=0;entryX=0.5;entryY=0;entryDx=0;entryDy=0;" parent="48SKnOxND9hZLmwks5wA-141" source="48SKnOxND9hZLmwks5wA-8" edge="1">
          <mxGeometry relative="1" as="geometry">
            <mxPoint x="493" y="408" as="targetPoint" />
          </mxGeometry>
        </mxCell>
        <mxCell id="5IMj3sq28d45GON7TOr--7" value="&lt;span style=&quot;font-size: 11px;&quot;&gt;GitHub Public &lt;br&gt;Scan Repo&lt;/span&gt;" style="rounded=0;whiteSpace=wrap;html=1;fontFamily=Verdana;fontSize=13;" parent="48SKnOxND9hZLmwks5wA-141" vertex="1">
          <mxGeometry x="433" y="412.5" width="120" height="52" as="geometry" />
        </mxCell>
        <mxCell id="Cl2ieZNSZ0X_a640U3RO-5" value="Kali Linux" style="rounded=0;whiteSpace=wrap;html=1;fontFamily=Verdana;fontSize=13;" parent="48SKnOxND9hZLmwks5wA-141" vertex="1">
          <mxGeometry x="769" y="512" width="120" height="40" as="geometry" />
        </mxCell>
        <mxCell id="Cl2ieZNSZ0X_a640U3RO-6" value="SonarQube or Synk" style="rounded=0;whiteSpace=wrap;html=1;fontFamily=Verdana;fontSize=13;" parent="48SKnOxND9hZLmwks5wA-141" vertex="1">
          <mxGeometry x="436" y="485" width="120" height="49" as="geometry" />
        </mxCell>
        <mxCell id="Cl2ieZNSZ0X_a640U3RO-9" value="Infra-Scan&lt;br&gt;(Nessus)" style="rounded=0;whiteSpace=wrap;html=1;fontFamily=Verdana;fontSize=13;" parent="48SKnOxND9hZLmwks5wA-141" vertex="1">
          <mxGeometry x="769" y="423" width="120" height="40" as="geometry" />
        </mxCell>
        <mxCell id="Cl2ieZNSZ0X_a640U3RO-14" value="Serverless / Functions" style="rounded=0;whiteSpace=wrap;html=1;fontFamily=Verdana;fontSize=13;" parent="48SKnOxND9hZLmwks5wA-141" vertex="1">
          <mxGeometry x="593" y="483" width="119" height="53" as="geometry" />
        </mxCell>
        <mxCell id="Cl2ieZNSZ0X_a640U3RO-16" value="GitHub&lt;br&gt;Depend-a-bot" style="rounded=0;whiteSpace=wrap;html=1;fontFamily=Verdana;fontSize=13;align=center;" parent="48SKnOxND9hZLmwks5wA-141" vertex="1">
          <mxGeometry x="279" y="550" width="130" height="50" as="geometry" />
        </mxCell>
        <mxCell id="Cl2ieZNSZ0X_a640U3RO-17" style="edgeStyle=orthogonalEdgeStyle;rounded=0;orthogonalLoop=1;jettySize=auto;html=1;exitX=0.5;exitY=1;exitDx=0;exitDy=0;entryX=0.5;entryY=0;entryDx=0;entryDy=0;" parent="48SKnOxND9hZLmwks5wA-141" source="Cl2ieZNSZ0X_a640U3RO-1" target="Cl2ieZNSZ0X_a640U3RO-16" edge="1">
          <mxGeometry relative="1" as="geometry" />
        </mxCell>
        <mxCell id="Cl2ieZNSZ0X_a640U3RO-18" value="Grafana" style="rounded=0;whiteSpace=wrap;html=1;fontFamily=Verdana;fontSize=13;" parent="48SKnOxND9hZLmwks5wA-141" vertex="1">
          <mxGeometry x="936" y="407" width="130" height="40" as="geometry" />
        </mxCell>
        <mxCell id="Ajq7YrrUFOQTxtbcXFvG-1" value="Risk&amp;nbsp;&lt;div&gt;Assessments&lt;/div&gt;" style="rounded=0;whiteSpace=wrap;html=1;fontFamily=Verdana;fontSize=13;" parent="48SKnOxND9hZLmwks5wA-141" vertex="1">
          <mxGeometry x="125.5" y="381" width="121" height="40" as="geometry" />
        </mxCell>
        <mxCell id="Ajq7YrrUFOQTxtbcXFvG-2" value="Security Risk Assessment" style="rounded=0;whiteSpace=wrap;html=1;fontFamily=Verdana;fontSize=13;" parent="48SKnOxND9hZLmwks5wA-141" vertex="1">
          <mxGeometry x="125.5" y="522" width="121" height="40" as="geometry" />
        </mxCell>
        <mxCell id="Ajq7YrrUFOQTxtbcXFvG-3" value="Governance" style="rounded=0;whiteSpace=wrap;html=1;fontFamily=Verdana;fontSize=13;" parent="48SKnOxND9hZLmwks5wA-141" vertex="1">
          <mxGeometry x="125.5" y="429" width="121" height="40" as="geometry" />
        </mxCell>
        <mxCell id="Ajq7YrrUFOQTxtbcXFvG-4" value="Synk / &lt;br&gt;Containers" style="rounded=0;whiteSpace=wrap;html=1;fontFamily=Verdana;fontSize=13;" parent="48SKnOxND9hZLmwks5wA-141" vertex="1">
          <mxGeometry x="594" y="414" width="120" height="49" as="geometry" />
        </mxCell>
        <mxCell id="Ajq7YrrUFOQTxtbcXFvG-6" value="MobSF&lt;br&gt;Mobile-Security-Framework-" style="rounded=0;whiteSpace=wrap;html=1;fontFamily=Verdana;fontSize=13;" parent="48SKnOxND9hZLmwks5wA-141" vertex="1">
          <mxGeometry x="593" y="611" width="120" height="49" as="geometry" />
        </mxCell>
        <mxCell id="Ajq7YrrUFOQTxtbcXFvG-7" value="ParrotOS" style="rounded=0;whiteSpace=wrap;html=1;fontFamily=Verdana;fontSize=13;" parent="48SKnOxND9hZLmwks5wA-141" vertex="1">
          <mxGeometry x="769" y="560" width="120" height="40" as="geometry" />
        </mxCell>
        <mxCell id="Ajq7YrrUFOQTxtbcXFvG-9" style="edgeStyle=orthogonalEdgeStyle;rounded=0;orthogonalLoop=1;jettySize=auto;html=1;exitX=0.5;exitY=1;exitDx=0;exitDy=0;entryX=0.45;entryY=0.02;entryDx=0;entryDy=0;entryPerimeter=0;" parent="48SKnOxND9hZLmwks5wA-141" source="48SKnOxND9hZLmwks5wA-15" target="Ajq7YrrUFOQTxtbcXFvG-4" edge="1">
          <mxGeometry relative="1" as="geometry" />
        </mxCell>
        <mxCell id="kn9UfZlOlQjJ7G4CIAAx-1" value="Pentesting" style="rounded=0;whiteSpace=wrap;html=1;fontFamily=Verdana;fontSize=13;" vertex="1" parent="48SKnOxND9hZLmwks5wA-141">
          <mxGeometry x="769" y="608" width="120" height="40" as="geometry" />
        </mxCell>
        <mxCell id="kn9UfZlOlQjJ7G4CIAAx-2" value="Prometheus" style="rounded=0;whiteSpace=wrap;html=1;fontFamily=Verdana;fontSize=13;" vertex="1" parent="48SKnOxND9hZLmwks5wA-141">
          <mxGeometry x="936" y="502" width="130" height="40" as="geometry" />
        </mxCell>
        <mxCell id="kn9UfZlOlQjJ7G4CIAAx-3" value="Wazuh" style="rounded=0;whiteSpace=wrap;html=1;fontFamily=Verdana;fontSize=13;" vertex="1" parent="48SKnOxND9hZLmwks5wA-141">
          <mxGeometry x="936" y="550" width="130" height="40" as="geometry" />
        </mxCell>
        <mxCell id="1" value="Data Layer" parent="0" />
        <mxCell id="48SKnOxND9hZLmwks5wA-1" value="&lt;font style=&quot;font-size: 35px;&quot;&gt;DevSecOps&lt;/font&gt;" style="rounded=1;whiteSpace=wrap;html=1;fillColor=#dae8fc;strokeColor=#6c8ebf;glass=0;shadow=1;sketch=1;curveFitting=1;jiggle=2;" parent="1" vertex="1">
          <mxGeometry x="111" y="178" width="965" height="60" as="geometry" />
        </mxCell>
        <mxCell id="48SKnOxND9hZLmwks5wA-2" value="&lt;p style=&quot;font-size: 13px;&quot;&gt;&lt;b&gt;Secure&lt;br&gt;Design&lt;/b&gt;&lt;/p&gt;" style="rounded=1;whiteSpace=wrap;html=1;fontSize=23;fillColor=#DAE8FC;strokeColor=#36393d;spacing=0;" parent="1" vertex="1">
          <mxGeometry x="122" y="264" width="121" height="56" as="geometry" />
        </mxCell>
        <mxCell id="48SKnOxND9hZLmwks5wA-3" value="SCA &lt;br&gt;&lt;span style=&quot;font-weight: normal;&quot;&gt;(Software Composition Analysis)&lt;/span&gt;" style="rounded=1;whiteSpace=wrap;html=1;fontSize=13;fontStyle=1;spacing=0;fillColor=#DAE8FC;strokeColor=#36393d;" parent="1" vertex="1">
          <mxGeometry x="270" y="330" width="140" height="60" as="geometry" />
        </mxCell>
        <mxCell id="48SKnOxND9hZLmwks5wA-5" value="&lt;p style=&quot;font-size: 13px;&quot;&gt;&lt;font style=&quot;font-size: 13px;&quot; face=&quot;Verdana&quot;&gt;&lt;span style=&quot;line-height: 0.1;&quot;&gt;&lt;b&gt;DAST&lt;/b&gt;&lt;/span&gt;&lt;span style=&quot;line-height: 0.1;&quot;&gt; (Dynamic&amp;nbsp;&lt;/span&gt;&lt;span style=&quot;background-color: initial;&quot;&gt;Application Security&amp;nbsp;&lt;/span&gt;&lt;span style=&quot;background-color: initial;&quot;&gt;Testing)&lt;/span&gt;&lt;/font&gt;&lt;/p&gt;" style="rounded=1;html=1;fontSize=10;whiteSpace=wrap;align=center;fillColor=#DAE8FC;strokeColor=#36393d;" parent="1" vertex="1">
          <mxGeometry x="750" y="262.5" width="150" height="60" as="geometry" />
        </mxCell>
        <mxCell id="48SKnOxND9hZLmwks5wA-6" value="&lt;font style=&quot;font-size: 13px;&quot; face=&quot;Verdana&quot;&gt;&lt;b&gt;Observability&lt;/b&gt;&lt;/font&gt;" style="rounded=1;whiteSpace=wrap;html=1;fontSize=23;fillColor=#DAE8FC;strokeColor=#36393d;" parent="1" vertex="1">
          <mxGeometry x="933" y="264" width="131" height="35" as="geometry" />
        </mxCell>
        <mxCell id="48SKnOxND9hZLmwks5wA-8" value="&lt;p style=&quot;font-size: 13px;&quot;&gt;&lt;font face=&quot;Verdana&quot;&gt;&lt;span style=&quot;line-height: 0.1;&quot;&gt;&lt;b&gt;SAST&lt;/b&gt;&lt;/span&gt;&lt;span style=&quot;line-height: 0.1;&quot;&gt;&lt;span style=&quot;font-size: 11px;&quot;&gt; (&lt;/span&gt;&lt;font style=&quot;font-size: 13px;&quot;&gt;Static&lt;/font&gt;&lt;span style=&quot;font-size: 11px;&quot;&gt;&amp;nbsp;&lt;/span&gt;&lt;/span&gt;&lt;/font&gt;&lt;span style=&quot;font-family: Verdana; font-size: 13px; background-color: initial;&quot;&gt;Application Security&amp;nbsp;&lt;/span&gt;&lt;span style=&quot;background-color: initial; line-height: 0.1;&quot;&gt;&lt;font style=&quot;font-size: 13px;&quot; face=&quot;Verdana&quot;&gt;Testing&lt;/font&gt;&lt;/span&gt;&lt;font style=&quot;background-color: initial; font-size: 13px; line-height: 0.1;&quot; face=&quot;Verdana&quot;&gt;)&lt;/font&gt;&lt;/p&gt;" style="rounded=1;html=1;fontSize=10;align=center;whiteSpace=wrap;fillColor=#DAE8FC;strokeColor=#36393d;" parent="1" vertex="1">
          <mxGeometry x="420" y="330" width="140" height="60" as="geometry" />
        </mxCell>
        <mxCell id="48SKnOxND9hZLmwks5wA-9" value="Compliance / Standards" style="rounded=0;whiteSpace=wrap;html=1;fontFamily=Verdana;fontSize=13;" parent="1" vertex="1">
          <mxGeometry x="125" y="333" width="121" height="40" as="geometry" />
        </mxCell>
        <mxCell id="48SKnOxND9hZLmwks5wA-10" value="Modeling &lt;br&gt;Threats" style="rounded=0;whiteSpace=wrap;html=1;fontFamily=Verdana;fontSize=13;" parent="1" vertex="1">
          <mxGeometry x="126" y="476" width="120" height="40" as="geometry" />
        </mxCell>
        <mxCell id="Cl2ieZNSZ0X_a640U3RO-2" style="edgeStyle=orthogonalEdgeStyle;rounded=0;orthogonalLoop=1;jettySize=auto;html=1;exitX=0.5;exitY=1;exitDx=0;exitDy=0;entryX=0.5;entryY=0;entryDx=0;entryDy=0;" parent="1" source="48SKnOxND9hZLmwks5wA-11" target="Cl2ieZNSZ0X_a640U3RO-1" edge="1">
          <mxGeometry relative="1" as="geometry" />
        </mxCell>
        <mxCell id="48SKnOxND9hZLmwks5wA-11" value="OWASP Dependency Checker" style="rounded=0;whiteSpace=wrap;html=1;fontFamily=Verdana;fontSize=13;align=center;" parent="1" vertex="1">
          <mxGeometry x="275" y="412" width="130" height="50" as="geometry" />
        </mxCell>
        <mxCell id="48SKnOxND9hZLmwks5wA-15" value="&lt;p style=&quot;font-size: 13px;&quot;&gt;&lt;font face=&quot;Verdana&quot;&gt;&lt;span style=&quot;line-height: 0.1;&quot;&gt;&lt;b&gt;IAST&lt;/b&gt;&lt;/span&gt;&lt;span style=&quot;line-height: 0.1;&quot;&gt;&lt;span style=&quot;font-size: 11px;&quot;&gt; (&lt;/span&gt;&lt;font style=&quot;font-size: 13px;&quot;&gt;Interactive&lt;/font&gt;&lt;span style=&quot;font-size: 11px;&quot;&gt;&amp;nbsp;&lt;/span&gt;&lt;/span&gt;&lt;/font&gt;&lt;span style=&quot;font-family: Verdana; font-size: 13px; background-color: initial;&quot;&gt;Application Security&amp;nbsp;&lt;/span&gt;&lt;span style=&quot;background-color: initial; line-height: 0.1;&quot;&gt;&lt;font style=&quot;font-size: 13px;&quot; face=&quot;Verdana&quot;&gt;Testing&lt;/font&gt;&lt;/span&gt;&lt;font style=&quot;background-color: initial; font-size: 13px; line-height: 0.1;&quot; face=&quot;Verdana&quot;&gt;)&lt;/font&gt;&lt;/p&gt;" style="rounded=1;html=1;fontSize=10;align=center;whiteSpace=wrap;fillColor=#DAE8FC;strokeColor=#36393d;" parent="1" vertex="1">
          <mxGeometry x="570" y="330" width="160" height="62" as="geometry" />
        </mxCell>
        <mxCell id="48SKnOxND9hZLmwks5wA-27" value="Trivy" style="rounded=0;whiteSpace=wrap;html=1;fontFamily=Verdana;fontSize=13;" parent="1" vertex="1">
          <mxGeometry x="594" y="550" width="120" height="49" as="geometry" />
        </mxCell>
        <mxCell id="48SKnOxND9hZLmwks5wA-28" value="BurpSuite&lt;br&gt;(Web / Pentest)" style="rounded=0;whiteSpace=wrap;html=1;fontFamily=Verdana;fontSize=13;" parent="1" vertex="1">
          <mxGeometry x="768" y="377" width="120" height="40" as="geometry" />
        </mxCell>
        <mxCell id="48SKnOxND9hZLmwks5wA-31" value="Infra-Scan&lt;br&gt;(NMAP)" style="rounded=0;whiteSpace=wrap;html=1;fontFamily=Verdana;fontSize=13;" parent="1" vertex="1">
          <mxGeometry x="769" y="468" width="120" height="40" as="geometry" />
        </mxCell>
        <mxCell id="48SKnOxND9hZLmwks5wA-32" value="Web Scan&lt;br&gt;OWZap" style="rounded=0;whiteSpace=wrap;html=1;fontFamily=Verdana;fontSize=13;" parent="1" vertex="1">
          <mxGeometry x="770" y="330" width="120" height="40" as="geometry" />
        </mxCell>
        <mxCell id="48SKnOxND9hZLmwks5wA-35" value="pfsense &lt;br&gt;(NGFW-firewalls)" style="rounded=0;whiteSpace=wrap;html=1;fontFamily=Verdana;fontSize=13;" parent="1" vertex="1">
          <mxGeometry x="936" y="358" width="130" height="40" as="geometry" />
        </mxCell>
        <mxCell id="48SKnOxND9hZLmwks5wA-37" value="Open EDR" style="rounded=0;whiteSpace=wrap;html=1;fontFamily=Verdana;fontSize=13;" parent="1" vertex="1">
          <mxGeometry x="935" y="311" width="130" height="40" as="geometry" />
        </mxCell>
        <mxCell id="48SKnOxND9hZLmwks5wA-39" value="AWS Cloudtrail" style="rounded=0;whiteSpace=wrap;html=1;fontFamily=Verdana;fontSize=13;" parent="1" vertex="1">
          <mxGeometry x="935" y="454" width="130" height="40" as="geometry" />
        </mxCell>
        <mxCell id="48SKnOxND9hZLmwks5wA-45" value="&lt;p style=&quot;font-size: 13px;&quot;&gt;&lt;font color=&quot;#330000&quot; face=&quot;Verdana&quot;&gt;&lt;b&gt;Application Security &lt;br&gt;(AppSec)&lt;/b&gt;&lt;/font&gt;&lt;/p&gt;" style="rounded=1;html=1;fontSize=10;align=center;whiteSpace=wrap;fillColor=none;" parent="1" vertex="1">
          <mxGeometry x="351" y="261" width="324" height="60" as="geometry" />
        </mxCell>
        <mxCell id="Cl2ieZNSZ0X_a640U3RO-1" value="Renovate" style="rounded=0;whiteSpace=wrap;html=1;fontFamily=Verdana;fontSize=13;align=center;" parent="1" vertex="1">
          <mxGeometry x="277" y="485" width="130" height="50" as="geometry" />
        </mxCell>
      </root>
    </mxGraphModel>
  </diagram>
</mxfile>
